# xmcd
#
# Track frame offsets:
#	150
#	17770
#	36902
#	55540
#
# Disc length: 972 seconds
#
# Revision: 0
# Processed by: cddbd v1.5.2PL0 Copyright (c) Steve Scherf et al.
# Submitted via: audiograbber 1.83.01
#
DISCID=2703ca04
DTITLE=Various Artist - M‰ En Rakasta Sua En‰‰ [CDM)
DYEAR=1997
DGENRE=Pop
TTITLE0=Inka and Jussi Rainio - M‰ En Rakasta Sua En‰‰ (Radio Edit)
TTITLE1=Inka and Jussi Rainio - M‰ En Rakasta Sua En‰‰ (Akustinen Versio)
TTITLE2=Inka - Tomua Tuulessa
TTITLE3=Inka - Ruususen Unta (Albumiversio)
EXTD=TR.
EXTT0=
EXTT1=
EXTT2=
EXTT3=
PLAYORDER=
